# xmcd CD database file
#
# Track frame offsets:
#	150
#	29285
#	49250
#	69607
#	98332
#	114402
#	125352
#	153547
#	169870
#
# Disc length: 2558 seconds
#
# Revision: 2
# Processed by: cddbd v1.5.2PL0 Copyright (c) Steve Scherf et al.
# Submitted via: CDex 1.78
#
DISCID=6f09fc09
DTITLE=Kelly*Georgia - Winter Classics
DYEAR=1990
DGENRE=New Age
TTITLE0=Pachelbel's Canon
TTITLE1=Little Drummer Boy
TTITLE2=Jesu, Joy of Man's Desiring
TTITLE3=Sheep Can Safely Graze
TTITLE4=Greensleeves
TTITLE5=Good King Wenceslas
TTITLE6=Sleepers, Awake
TTITLE7=Ave Maria
TTITLE8=O Holy Night
EXTD=YEAR: 1990
EXTT0=
EXTT1=
EXTT2=
EXTT3=
EXTT4=
EXTT5=
EXTT6=
EXTT7=
EXTT8=
PLAYORDER=
